HIERARCHY
ROOT Hips
{
	OFFSET 0.000000 0.000000 0.000000
	CHANNELS 6 Xposition Yposition Zposition Zrotation Yrotation Xrotation 
	JOINT LHipJoint
	{
		OFFSET 0.000000 0.000000 0.000000
		CHANNELS 3 Zrotation Yrotation Xrotation
		JOINT LeftUpLeg
		{
			OFFSET 1.363060 -1.794630 0.839290
			CHANNELS 3 Zrotation Yrotation Xrotation
			JOINT LeftLeg
			{
				OFFSET 2.448110 -6.726130 0.000000
				CHANNELS 3 Zrotation Yrotation Xrotation
				JOINT LeftFoot
				{
					OFFSET 2.562200 -7.039590 0.000000
					CHANNELS 3 Zrotation Yrotation Xrotation
					JOINT LeftToeBase
					{
						OFFSET 0.157640 -0.433110 2.322550
						CHANNELS 3 Zrotation Yrotation Xrotation
						End Site
						{
							OFFSET 0.000000 0.000000 0.000000
						}
					}
				}
			}
		}
	}
	JOINT RHipJoint
	{
		OFFSET 0.000000 0.000000 0.000000
		CHANNELS 3 Zrotation Yrotation Xrotation
		JOINT RightUpLeg
		{
			OFFSET -1.305520 -1.794630 0.839290
			CHANNELS 3 Zrotation Yrotation Xrotation
			JOINT RightLeg
			{
				OFFSET -2.542530 -6.985550 0.000000
				CHANNELS 3 Zrotation Yrotation Xrotation
				JOINT RightFoot
				{
					OFFSET -2.568260 -7.056230 0.000000
					CHANNELS 3 Zrotation Yrotation Xrotation
					JOINT RightToeBase
					{
						OFFSET -0.164730 -0.452590 2.363150
						CHANNELS 3 Zrotation Yrotation Xrotation
						End Site
						{
							OFFSET 0.000000 0.000000 0.000000
						}
					}
				}
			}
		}
	}
	JOINT LowerBack
	{
		OFFSET 0.000000 0.000000 0.000000
		CHANNELS 3 Zrotation Yrotation Xrotation
		JOINT Spine
		{
			OFFSET 0.028270 2.035590 -0.193380
			CHANNELS 3 Zrotation Yrotation Xrotation
			JOINT Spine1
			{
				OFFSET 0.056720 2.048850 -0.042750
				CHANNELS 3 Zrotation Yrotation Xrotation
				JOINT Neck
				{
					OFFSET 0.000000 0.000000 0.000000
					CHANNELS 3 Zrotation Yrotation Xrotation
					JOINT Neck1
					{
						OFFSET -0.054170 1.746240 0.172020
						CHANNELS 3 Zrotation Yrotation Xrotation
						JOINT Head
						{
							OFFSET 0.104070 1.761360 -0.123970
							CHANNELS 3 Zrotation Yrotation Xrotation
							End Site
							{
								OFFSET 0.000000 0.000000 0.000000
							}
						}
					}
				}
				JOINT LeftShoulder
				{
					OFFSET 0.000000 0.000000 0.000000
					CHANNELS 3 Zrotation Yrotation Xrotation
					JOINT LeftArm
					{
						OFFSET 3.362410 1.200890 -0.311210
						CHANNELS 3 Zrotation Yrotation Xrotation
						JOINT LeftForeArm
						{
							OFFSET 4.983000 -0.000000 -0.000000
							CHANNELS 3 Zrotation Yrotation Xrotation
							JOINT LeftHand
							{
								OFFSET 3.483560 -0.000000 -0.000000
								CHANNELS 3 Zrotation Yrotation Xrotation
								JOINT LeftFingerBase
								{
									OFFSET 0.000000 0.000000 0.000000
									CHANNELS 3 Zrotation Yrotation Xrotation
									JOINT LeftHandIndex1
									{
										OFFSET 0.715260 -0.000000 -0.000000
										CHANNELS 3 Zrotation Yrotation Xrotation
										End Site
										{
											OFFSET 0.000000 0.000000 0.000000
										}
									}
								}
								JOINT LThumb
								{
									OFFSET 0.000000 0.000000 0.000000
									CHANNELS 3 Zrotation Yrotation Xrotation
									End Site
									{
										OFFSET 0.000000 0.000000 0.000000
									}
								}
							}
						}
					}
				}
				JOINT RightShoulder
				{
					OFFSET 0.000000 0.000000 0.000000
					CHANNELS 3 Zrotation Yrotation Xrotation
					JOINT RightArm
					{
						OFFSET -3.136600 1.374050 -0.404650
						CHANNELS 3 Zrotation Yrotation Xrotation
						JOINT RightForeArm
						{
							OFFSET -5.241900 -0.000000 -0.000000
							CHANNELS 3 Zrotation Yrotation Xrotation
							JOINT RightHand
							{
								OFFSET -3.444170 -0.000000 -0.000000
								CHANNELS 3 Zrotation Yrotation Xrotation
								JOINT RightFingerBase
								{
									OFFSET 0.000000 0.000000 0.000000
									CHANNELS 3 Zrotation Yrotation Xrotation
									JOINT RightHandIndex1
									{
										OFFSET -0.622530 -0.000000 -0.000000
										CHANNELS 3 Zrotation Yrotation Xrotation
										End Site
										{
											OFFSET 0.000000 0.000000 0.000000
										}
									}
								}
								JOINT RThumb
								{
									OFFSET 0.000000 0.000000 0.000000
									CHANNELS 3 Zrotation Yrotation Xrotation
									End Site
									{
										OFFSET 0.000000 0.000000 0.000000
									}
								}
							}
						}
					}
				}
			}
		}
	}
}
MOTION
Frames: 11
Frame Time: 0.008333
-11.992297 16.762082 0.968503 -6.968852 87.343347 8.686645 -11.472191 2.436218 -2.533658 -1.752649 5.070877 -3.878580 -0.127207 2.200633 34.516348 1.522910 9.154537 9.673255 2.310400 0.000000 -84.071500 8.956278 0.879045 0.648456 4.431095 1.527800 -39.538966 1.858942 -1.178296 17.386447 -0.685025 -4.020852 10.021512 -1.900400 -0.000001 -44.692000 6.020238 -2.898284 3.780655 -0.032623 -3.188195 -1.702984 -8.707538 -3.099209 1.917287 8.757675 -6.697731 -6.696392 -4.725429 -0.350967 0.063926 0.000000 0.000000 0.000000 0.350047 8.792215 3.011627 -28.727125 -9.888153 9.490073 -1.126844 -74.641099 0.024255 -12.222507 1.266883 -0.123827 0.022939 0.107835 0.000000 0.000000 0.000000 0.000000 0.000000 0.000000 0.000000 20.734144 -5.478521 0.819486 72.157580 -5.094399 -17.884932 3.816003 16.977694 0.014698 5.149561 7.129405 0.321192 0.058302 -0.075070 -0.000000 0.000000 0.000000 0.000000 0.000000 0.000000 0.000000 
-11.823301 16.773338 0.998840 -20.530465 87.677491 -4.962873 -11.697333 2.196042 -2.604704 -0.918582 5.627114 -5.115716 0.169040 2.249262 37.118603 1.716221 10.113244 11.790032 2.833900 0.000000 -81.546400 8.785054 0.622311 0.515886 5.390541 1.200670 -39.392486 1.983094 -1.325985 18.653708 -0.662800 -3.753643 9.042117 -1.732900 -0.000000 -45.255100 6.732725 -2.919059 3.944930 0.133356 -3.220053 -1.701870 -8.677806 -3.138431 1.857663 8.712500 -6.261057 -6.557235 -4.748283 -0.353097 0.098164 0.000000 0.000000 0.000000 0.182030 8.850178 3.028955 -29.871154 -9.170165 10.204581 -1.196754 -74.149296 0.022353 -12.252669 1.356428 -0.134575 0.014577 0.098895 0.000000 0.000000 0.000000 0.000000 0.000000 0.000000 0.000000 20.656514 -5.065544 0.803216 71.953637 -4.399037 -17.744228 3.820174 16.713625 0.014720 5.021935 7.272938 0.319391 0.058196 -0.075741 -0.000000 0.000000 0.000000 0.000000 0.000000 0.000000 0.000000 
-11.656987 16.786206 1.031342 -32.464210 87.874094 -16.983157 -11.978793 1.948268 -2.666727 -0.240957 6.195308 -6.440980 0.421265 2.289999 39.745622 1.933650 11.248467 13.690686 3.443900 0.000000 -77.565299 8.566753 0.373678 0.369861 6.254681 0.820084 -39.158765 2.109209 -1.443062 19.769741 -0.631430 -3.455279 7.924032 -1.560000 0.000000 -45.888701 7.220711 -2.929326 4.107795 0.248476 -3.235670 -1.701880 -8.641937 -3.161158 1.800821 8.713278 -5.827396 -6.401778 -4.766124 -0.354960 0.137188 0.000000 0.000000 0.000000 0.062664 8.886484 3.034305 -31.050429 -8.419998 10.963287 -1.270741 -73.580486 0.020341 -12.295681 1.447909 -0.145830 0.006961 0.089493 0.000000 0.000000 0.000000 0.000000 0.000000 0.000000 0.000000 20.612827 -4.659021 0.784244 71.748422 -3.628329 -17.541400 3.820104 16.464017 0.014722 4.908825 7.416462 0.318292 0.057806 -0.076421 -0.000000 0.000000 0.000000 0.000000 0.000000 0.000000 0.000000 
-11.493493 16.800451 1.066310 -42.320089 87.945917 -26.916264 -12.251673 1.720134 -2.723333 0.291124 6.759020 -7.843866 0.613781 2.340829 42.370316 2.162540 12.533125 15.241990 4.119700 0.000000 -72.372200 8.360821 0.165985 0.217873 7.030086 0.425782 -38.836240 2.226405 -1.527671 20.716822 -0.599633 -3.170034 6.755274 -1.400500 0.000000 -46.510200 7.547108 -2.914805 4.268981 0.323715 -3.222699 -1.702122 -8.607240 -3.155209 1.745844 8.759081 -5.407130 -6.235198 -4.779458 -0.356573 0.179659 0.000000 0.000000 0.000000 -0.015785 8.904549 3.027141 -32.240074 -7.630096 11.759031 -1.347376 -72.944159 0.018224 -12.355325 1.538834 -0.157394 0.000308 0.079634 0.000000 0.000000 0.000000 0.000000 0.000000 0.000000 0.000000 20.604393 -4.262173 0.764792 71.543677 -2.773496 -17.296234 3.817046 16.222756 0.014726 4.812921 7.556356 0.317893 0.057221 -0.077230 -0.000000 0.000000 0.000000 0.000000 0.000000 0.000000 0.000000 
-11.332848 16.815912 1.103970 -50.219375 87.953483 -34.878746 -12.477825 1.514137 -2.778803 0.677756 7.288614 -9.309271 0.753339 2.406251 44.962425 2.389603 13.929737 16.353094 4.828400 -0.000000 -66.416000 8.196688 0.002407 0.070857 7.704567 0.032948 -38.435554 2.328504 -1.584515 21.487476 -0.575318 -2.929802 5.607391 -1.263999 -0.000000 -47.046200 7.749314 -2.883121 4.423412 0.368484 -3.189442 -1.701397 -8.577248 -3.128705 1.697026 8.848050 -5.008190 -6.064872 -4.788673 -0.357919 0.223488 0.000000 0.000000 0.000000 -0.067242 8.919578 3.011306 -33.406557 -6.835553 12.596628 -1.427122 -72.234076 0.016024 -12.429610 1.627245 -0.168967 -0.005492 0.069463 0.000000 0.000000 0.000000 0.000000 0.000000 0.000000 0.000000 20.633607 -3.885000 0.743764 71.342410 -1.828806 -17.039831 3.811346 15.986652 0.014734 4.740322 7.687599 0.318595 0.056439 -0.078190 -0.000000 0.000000 0.000000 0.000000 0.000000 0.000000 0.000000 
-11.175083 16.832574 1.144114 -56.674887 87.948716 -41.380128 -12.650352 1.327219 -2.833734 0.918336 7.758067 -10.824916 0.853866 2.486391 47.488234 2.604986 15.388513 16.988232 5.526100 -0.000000 -60.265900 8.076952 -0.124644 -0.063549 8.267340 -0.346660 -37.970324 2.412481 -1.617743 22.080679 -0.563285 -2.758558 4.538285 -1.155900 -0.000000 -47.440300 7.841942 -2.843697 4.564525 0.387849 -3.145847 -1.700967 -8.551576 -3.091741 1.653104 8.972806 -4.634957 -5.892752 -4.794493 -0.359073 0.268169 0.000000 0.000000 0.000000 -0.094952 8.912235 2.990198 -34.545557 -6.017851 13.463155 -1.509626 -71.457109 0.013743 -12.521070 1.713273 -0.180649 -0.010472 0.059009 0.000000 0.000000 0.000000 0.000000 0.000000 0.000000 0.000000 20.696026 -3.534916 0.723129 71.146619 -0.795117 -16.789364 3.802968 15.752573 0.014750 4.690841 7.808644 0.320197 0.055475 -0.079350 -0.000000 0.000000 0.000000 0.000000 0.000000 0.000000 0.000000 
-11.020163 16.850573 1.186414 -62.149997 87.963152 -46.881285 -12.772540 1.158785 -2.886722 1.008582 8.147055 -12.378214 0.928230 2.580137 49.913634 2.803106 16.856473 17.157158 6.166400 -0.000000 -54.427600 7.997905 -0.220729 -0.182586 8.710454 -0.706141 -37.455976 2.476526 -1.630955 22.506274 -0.564712 -2.665680 3.587573 -1.076500 0.000001 -47.665100 7.830418 -2.801918 4.688813 0.384315 -3.097608 -1.701439 -8.528767 -3.050056 1.613779 9.123297 -4.292673 -5.723175 -4.797196 -0.360045 0.312467 0.000000 0.000000 0.000000 -0.106697 8.875647 2.966373 -35.652584 -5.174810 14.347247 -1.595169 -70.612063 0.011388 -12.628136 1.797675 -0.192738 -0.014762 0.048327 0.000000 0.000000 0.000000 0.000000 0.000000 0.000000 0.000000 20.783872 -3.217985 0.704661 70.957579 0.329562 -16.554068 3.791997 15.516146 0.014783 4.662308 7.919523 0.322900 0.054360 -0.080773 -0.000000 0.000000 0.000000 0.000000 0.000000 0.000000 0.000000 
-10.867991 16.870087 1.230082 -67.127470 88.011558 -51.862264 -12.853906 1.007345 -2.934832 0.954049 8.443422 -13.961558 0.986728 2.684814 52.210407 2.981297 18.278797 16.899256 6.705000 -0.000000 -49.260000 7.950896 -0.291885 -0.285307 9.038200 -1.038205 -36.906751 2.520951 -1.626740 22.775419 -0.579153 -2.654219 2.777974 -1.024400 -0.000001 -47.723000 7.727310 -2.760278 4.793148 0.361392 -3.047934 -1.703527 -8.506985 -3.006868 1.578703 9.285054 -3.969603 -5.558581 -4.796991 -0.360819 0.355560 0.000000 0.000000 0.000000 -0.118952 8.824911 2.943686 -36.719905 -4.335887 15.248241 -1.685649 -69.683645 0.008966 -12.743985 1.881393 -0.204933 -0.018741 0.037563 0.000000 0.000000 0.000000 0.000000 0.000000 0.000000 0.000000 20.881931 -2.920798 0.688393 70.782022 1.528320 -16.375531 3.779028 15.287555 0.014833 4.667566 8.010921 0.327103 0.053034 -0.082479 -0.000000 0.000000 0.000000 0.000000 0.000000 0.000000 0.000000 
-10.718406 16.891374 1.274344 -71.944204 88.098162 -56.660344 -12.902189 0.872159 -2.975825 0.760802 8.643152 -15.564214 1.035791 2.796751 54.351256 3.138935 19.609417 16.273823 7.109300 -0.000000 -44.997701 7.929598 -0.341696 -0.373489 9.257550 -1.342383 -36.333735 2.547128 -1.607795 22.905321 -0.604245 -2.714779 2.113136 -0.995400 0.000001 -47.644300 7.543492 -2.719002 4.878015 0.322076 -2.997409 -1.707971 -8.483200 -2.962956 1.544940 9.443409 -3.661147 -5.399762 -4.793876 -0.361399 0.397177 0.000000 0.000000 0.000000 -0.137852 8.754421 2.923770 -37.760013 -3.496240 16.150378 -1.781925 -68.663952 0.006490 -12.863916 1.966624 -0.217633 -0.022607 0.026813 0.000000 0.000000 0.000000 0.000000 0.000000 0.000000 0.000000 20.973655 -2.636874 0.676052 70.621670 2.788533 -16.255291 3.764585 15.074183 0.014912 4.707139 8.080800 0.333007 0.051522 -0.084504 -0.000000 0.000000 0.000000 0.000000 0.000000 0.000000 0.000000 
-10.571310 16.914676 1.318338 -76.869820 88.219195 -61.548941 -12.924806 0.752173 -3.009752 0.442168 8.755352 -17.173272 1.078267 2.912613 56.313819 3.274676 20.801182 15.327315 7.349000 -0.000001 -41.564099 7.927807 -0.373668 -0.450692 9.381438 -1.622235 -35.741454 2.557900 -1.576538 22.913434 -0.636622 -2.830423 1.582580 -0.984101 -0.000000 -47.478900 7.293101 -2.676960 4.947981 0.269930 -2.945090 -1.714610 -8.453759 -2.917545 1.510014 9.583766 -3.368861 -5.248250 -4.787250 -0.361736 0.436863 0.000000 0.000000 0.000000 -0.168619 8.657801 2.906857 -38.789574 -2.648878 17.032639 -1.884494 -67.544525 0.003976 -12.981967 2.055878 -0.230936 -0.026497 0.016187 0.000000 0.000000 0.000000 0.000000 0.000000 0.000000 0.000000 21.040651 -2.365842 0.669222 70.475879 4.103053 -16.167817 3.749532 14.882384 0.015032 4.776299 8.131726 0.340211 0.049898 -0.086881 -0.000000 0.000000 0.000000 0.000000 0.000000 0.000000 0.000000 
-10.426479 16.940175 1.361094 -82.173918 88.364943 -66.801916 -12.929713 0.645380 -3.036727 0.018839 8.796472 -18.777890 1.114282 3.029186 58.077222 3.387356 21.815018 14.105963 7.404900 0.000000 -38.782500 7.938001 -0.392312 -0.520342 9.429415 -1.881799 -35.129928 2.557366 -1.534513 22.813109 -0.672889 -2.982885 1.167673 -0.985600 0.000000 -47.284999 6.994393 -2.632325 5.007066 0.209151 -2.889552 -1.723333 -8.415425 -2.869311 1.471839 9.692055 -3.086724 -5.103830 -4.776427 -0.361781 0.474648 0.000000 0.000000 0.000000 -0.219413 8.538942 2.893492 -39.822333 -1.801429 17.879460 -1.994227 -66.312410 0.001453 -13.090436 2.151504 -0.245041 -0.030611 0.005838 0.000000 0.000000 0.000000 0.000000 0.000000 0.000000 0.000000 21.063204 -2.099233 0.668030 70.345203 5.453896 -16.095990 3.735023 14.727965 0.015205 4.877177 8.161416 0.349017 0.048193 -0.089593 -0.000000 0.000000 0.000000 0.000000 0.000000 0.000000 0.000000 
